<svg id="viewport" viewBox="0 0 100 100">
<line x1="0" y1="0" x2="100" y2="0" stroke="black" stroke-width="0.1"></line>
<line x1="1" y1="0" x2="100" y2="1" stroke="black" stroke-width="0.1">
</line><line x1="2" y1="0" x2="100" y2="2" stroke="black" stroke-width="0.1"
></line><line x1="3" y1="0" x2="100" y2="3" stroke="black" stroke-width="0.1">
</line><line x1="4" y1="0" x2="100" y2="4" stroke="black" stroke-width="0.1">
</line><line x1="5" y1="0" x2="100" y2="5" stroke="black" stroke-width="0.1">
</line><line x1="6" y1="0" x2="100" y2="6" stroke="black" stroke-width="0.1">
</line><line x1="7" y1="0" x2="100" y2="7" stroke="black" stroke-width="0.1">
</line><line x1="8" y1="0" x2="100" y2="8" stroke="black" stroke-width="0.1"></line><line x1="9" y1="0" x2="100" y2="9" stroke="black" stroke-width="0.1"></line><line x1="10" y1="0" x2="100" y2="10" stroke="black" stroke-width="0.1"></line><line x1="11" y1="0" x2="100" y2="11" stroke="black" stroke-width="0.1"></line><line x1="12" y1="0" x2="100" y2="12" stroke="black" stroke-width="0.1"></line><line x1="13" y1="0" x2="100" y2="13" stroke="black" stroke-width="0.1"></line><line x1="14" y1="0" x2="100" y2="14" stroke="black" stroke-width="0.1"></line><line x1="15" y1="0" x2="100" y2="15" stroke="black" stroke-width="0.1"></line><line x1="16" y1="0" x2="100" y2="16" stroke="black" stroke-width="0.1"></line><line x1="17" y1="0" x2="100" y2="17" stroke="black" stroke-width="0.1"></line><line x1="18" y1="0" x2="100" y2="18" stroke="black" stroke-width="0.1"></line><line x1="19" y1="0" x2="100" y2="19" stroke="black" stroke-width="0.1"></line><line x1="20" y1="0" x2="100" y2="20" stroke="black" stroke-width="0.1"></line><line x1="21" y1="0" x2="100" y2="21" stroke="black" stroke-width="0.1"></line><line x1="22" y1="0" x2="100" y2="22" stroke="black" stroke-width="0.1"></line><line x1="23" y1="0" x2="100" y2="23" stroke="black" stroke-width="0.1"></line><line x1="24" y1="0" x2="100" y2="24" stroke="black" stroke-width="0.1"></line><line x1="25" y1="0" x2="100" y2="25" stroke="black" stroke-width="0.1"></line><line x1="26" y1="0" x2="100" y2="26" stroke="black" stroke-width="0.1"></line><line x1="27" y1="0" x2="100" y2="27" stroke="black" stroke-width="0.1"></line><line x1="28" y1="0" x2="100" y2="28" stroke="black" stroke-width="0.1"></line><line x1="29" y1="0" x2="100" y2="29" stroke="black" stroke-width="0.1"></line><line x1="30" y1="0" x2="100" y2="30" stroke="black" stroke-width="0.1"></line><line x1="31" y1="0" x2="100" y2="31" stroke="black" stroke-width="0.1"></line><line x1="32" y1="0" x2="100" y2="32" stroke="black" stroke-width="0.1"></line><line x1="33" y1="0" x2="100" y2="33" stroke="black" stroke-width="0.1"></line><line x1="34" y1="0" x2="100" y2="34" stroke="black" stroke-width="0.1"></line><line x1="35" y1="0" x2="100" y2="35" stroke="black" stroke-width="0.1"></line><line x1="36" y1="0" x2="100" y2="36" stroke="black" stroke-width="0.1"></line><line x1="37" y1="0" x2="100" y2="37" stroke="black" stroke-width="0.1"></line><line x1="38" y1="0" x2="100" y2="38" stroke="black" stroke-width="0.1"></line><line x1="39" y1="0" x2="100" y2="39" stroke="black" stroke-width="0.1"></line><line x1="40" y1="0" x2="100" y2="40" stroke="black" stroke-width="0.1"></line><line x1="41" y1="0" x2="100" y2="41" stroke="black" stroke-width="0.1"></line><line x1="42" y1="0" x2="100" y2="42" stroke="black" stroke-width="0.1"></line><line x1="43" y1="0" x2="100" y2="43" stroke="black" stroke-width="0.1"></line><line x1="44" y1="0" x2="100" y2="44" stroke="black" stroke-width="0.1"></line><line x1="45" y1="0" x2="100" y2="45" stroke="black" stroke-width="0.1"></line><line x1="46" y1="0" x2="100" y2="46" stroke="black" stroke-width="0.1"></line><line x1="47" y1="0" x2="100" y2="47" stroke="black" stroke-width="0.1"></line><line x1="48" y1="0" x2="100" y2="48" stroke="black" stroke-width="0.1"></line><line x1="49" y1="0" x2="100" y2="49" stroke="black" stroke-width="0.1"></line><line x1="50" y1="0" x2="100" y2="50" stroke="black" stroke-width="0.1"></line><line x1="51" y1="0" x2="100" y2="51" stroke="black" stroke-width="0.1"></line><line x1="52" y1="0" x2="100" y2="52" stroke="black" stroke-width="0.1"></line><line x1="53" y1="0" x2="100" y2="53" stroke="black" stroke-width="0.1"></line><line x1="54" y1="0" x2="100" y2="54" stroke="black" stroke-width="0.1"></line><line x1="55" y1="0" x2="100" y2="55" stroke="black" stroke-width="0.1"></line><line x1="56" y1="0" x2="100" y2="56" stroke="black" stroke-width="0.1"></line><line x1="57" y1="0" x2="100" y2="57" stroke="black" stroke-width="0.1"></line><line x1="58" y1="0" x2="100" y2="58" stroke="black" stroke-width="0.1"></line><line x1="59" y1="0" x2="100" y2="59" stroke="black" stroke-width="0.1"></line><line x1="60" y1="0" x2="100" y2="60" stroke="black" stroke-width="0.1"></line><line x1="61" y1="0" x2="100" y2="61" stroke="black" stroke-width="0.1"></line><line x1="62" y1="0" x2="100" y2="62" stroke="black" stroke-width="0.1"></line><line x1="63" y1="0" x2="100" y2="63" stroke="black" stroke-width="0.1"></line><line x1="64" y1="0" x2="100" y2="64" stroke="black" stroke-width="0.1"></line><line x1="65" y1="0" x2="100" y2="65" stroke="black" stroke-width="0.1"></line><line x1="66" y1="0" x2="100" y2="66" stroke="black" stroke-width="0.1"></line><line x1="67" y1="0" x2="100" y2="67" stroke="black" stroke-width="0.1"></line><line x1="68" y1="0" x2="100" y2="68" stroke="black" stroke-width="0.1"></line><line x1="69" y1="0" x2="100" y2="69" stroke="black" stroke-width="0.1"></line><line x1="70" y1="0" x2="100" y2="70" stroke="black" stroke-width="0.1"></line><line x1="71" y1="0" x2="100" y2="71" stroke="black" stroke-width="0.1"></line><line x1="72" y1="0" x2="100" y2="72" stroke="black" stroke-width="0.1"></line><line x1="73" y1="0" x2="100" y2="73" stroke="black" stroke-width="0.1"></line><line x1="74" y1="0" x2="100" y2="74" stroke="black" stroke-width="0.1"></line><line x1="75" y1="0" x2="100" y2="75" stroke="black" stroke-width="0.1"></line><line x1="76" y1="0" x2="100" y2="76" stroke="black" stroke-width="0.1"></line><line x1="77" y1="0" x2="100" y2="77" stroke="black" stroke-width="0.1"></line><line x1="78" y1="0" x2="100" y2="78" stroke="black" stroke-width="0.1"></line><line x1="79" y1="0" x2="100" y2="79" stroke="black" stroke-width="0.1"></line><line x1="80" y1="0" x2="100" y2="80" stroke="black" stroke-width="0.1"></line><line x1="81" y1="0" x2="100" y2="81" stroke="black" stroke-width="0.1"></line><line x1="82" y1="0" x2="100" y2="82" stroke="black" stroke-width="0.1"></line><line x1="83" y1="0" x2="100" y2="83" stroke="black" stroke-width="0.1"></line><line x1="84" y1="0" x2="100" y2="84" stroke="black" stroke-width="0.1"></line><line x1="85" y1="0" x2="100" y2="85" stroke="black" stroke-width="0.1"></line><line x1="86" y1="0" x2="100" y2="86" stroke="black" stroke-width="0.1"></line><line x1="87" y1="0" x2="100" y2="87" stroke="black" stroke-width="0.1"></line><line x1="88" y1="0" x2="100" y2="88" stroke="black" stroke-width="0.1"></line><line x1="89" y1="0" x2="100" y2="89" stroke="black" stroke-width="0.1"></line><line x1="90" y1="0" x2="100" y2="90" stroke="black" stroke-width="0.1"></line><line x1="91" y1="0" x2="100" y2="91" stroke="black" stroke-width="0.1"></line><line x1="92" y1="0" x2="100" y2="92" stroke="black" stroke-width="0.1"></line><line x1="93" y1="0" x2="100" y2="93" stroke="black" stroke-width="0.1"></line><line x1="94" y1="0" x2="100" y2="94" stroke="black" stroke-width="0.1"></line><line x1="95" y1="0" x2="100" y2="95" stroke="black" stroke-width="0.1"></line><line x1="96" y1="0" x2="100" y2="96" stroke="black" stroke-width="0.1"></line><line x1="97" y1="0" x2="100" y2="97" stroke="black" stroke-width="0.1"></line><line x1="98" y1="0" x2="100" y2="98" stroke="black" stroke-width="0.1"></line><line x1="99" y1="0" x2="100" y2="99" stroke="black" stroke-width="0.1"></line><line x1="100" y1="0" x2="100" y2="100" stroke="black" stroke-width="0.1"></line></svg>