<?xml version="1.0" encoding="utf-8"?>
<!-- Generator: Adobe Illustrator 12.0.0, SVG Export Plug-In . SVG Version: 6.00 Build 51448)  -->
<!DOCTYPE svg PUBLIC "-//W3C//DTD SVG 1.1//EN" "http://www.w3.org/Graphics/SVG/1.1/DTD/svg11.dtd" [
	<!ENTITY ns_svg "http://www.w3.org/2000/svg">
	<!ENTITY ns_xlink "http://www.w3.org/1999/xlink">
]>
<svg  version="1.1" id="Calque_1" xmlns="&ns_svg;" xmlns:xlink="&ns_xlink;" width="914.333" height="507.176"
	 viewBox="0 0 914.333 507.176" overflow="visible" enable-background="new 0 0 914.333 507.176" xml:space="preserve">
<g>
	<line fill="none" stroke="#000000" stroke-width="0.5" x1="2.333" y1="489.754" x2="10.333" y2="1.755"/>
	<line fill="none" stroke="#000000" stroke-width="0.5" x1="2.333" y1="481.754" x2="18.333" y2="1.755"/>
	<line fill="none" stroke="#000000" stroke-width="0.5" x1="2.333" y1="473.754" x2="26.333" y2="1.755"/>
	<line fill="none" stroke="#000000" stroke-width="0.5" x1="2.333" y1="465.754" x2="34.333" y2="1.755"/>
	<line fill="none" stroke="#000000" stroke-width="0.5" x1="2.333" y1="457.754" x2="42.333" y2="1.755"/>
	<line fill="none" stroke="#000000" stroke-width="0.5" x1="2.333" y1="449.754" x2="50.333" y2="1.755"/>
	<line fill="none" stroke="#000000" stroke-width="0.5" x1="2.333" y1="441.754" x2="58.333" y2="1.755"/>
	<line fill="none" stroke="#000000" stroke-width="0.5" x1="2.333" y1="433.754" x2="66.333" y2="1.755"/>
	<line fill="none" stroke="#000000" stroke-width="0.5" x1="2.333" y1="425.754" x2="74.333" y2="1.755"/>
	<line fill="none" stroke="#000000" stroke-width="0.5" x1="2.333" y1="417.754" x2="82.333" y2="1.755"/>
	<line fill="none" stroke="#000000" stroke-width="0.5" x1="2.333" y1="409.754" x2="90.333" y2="1.755"/>
	<line fill="none" stroke="#000000" stroke-width="0.5" x1="2.333" y1="401.754" x2="98.333" y2="1.755"/>
	<line fill="none" stroke="#000000" stroke-width="0.5" x1="2.333" y1="393.754" x2="106.333" y2="1.755"/>
	<line fill="none" stroke="#000000" stroke-width="0.5" x1="2.333" y1="385.754" x2="114.333" y2="1.755"/>
	<line fill="none" stroke="#000000" stroke-width="0.5" x1="2.333" y1="377.754" x2="122.333" y2="1.755"/>
	<line fill="none" stroke="#000000" stroke-width="0.5" x1="2.333" y1="369.754" x2="130.333" y2="1.755"/>
	<line fill="none" stroke="#000000" stroke-width="0.5" x1="2.333" y1="361.754" x2="138.333" y2="1.755"/>
	<line fill="none" stroke="#000000" stroke-width="0.5" x1="2.333" y1="353.754" x2="146.333" y2="1.755"/>
	<line fill="none" stroke="#000000" stroke-width="0.5" x1="2.333" y1="345.754" x2="154.333" y2="1.755"/>
	<line fill="none" stroke="#000000" stroke-width="0.5" x1="2.333" y1="337.754" x2="162.333" y2="1.755"/>
	<line fill="none" stroke="#000000" stroke-width="0.5" x1="2.333" y1="329.754" x2="170.333" y2="1.755"/>
	<line fill="none" stroke="#000000" stroke-width="0.5" x1="2.333" y1="321.754" x2="178.333" y2="1.755"/>
	<line fill="none" stroke="#000000" stroke-width="0.5" x1="2.333" y1="313.754" x2="186.333" y2="1.755"/>
	<line fill="none" stroke="#000000" stroke-width="0.5" x1="2.333" y1="305.754" x2="194.333" y2="1.755"/>
	<line fill="none" stroke="#000000" stroke-width="0.5" x1="2.333" y1="297.754" x2="202.333" y2="2.088"/>
	<line fill="none" stroke="#000000" stroke-width="0.5" x1="2.333" y1="289.754" x2="210.333" y2="1.755"/>
	<line fill="none" stroke="#000000" stroke-width="0.5" x1="2.333" y1="281.754" x2="218.333" y2="1.755"/>
	<line fill="none" stroke="#000000" stroke-width="0.5" x1="2.333" y1="273.754" x2="226.333" y2="1.755"/>
	<line fill="none" stroke="#000000" stroke-width="0.5" x1="2.333" y1="265.754" x2="234.333" y2="1.755"/>
	<line fill="none" stroke="#000000" stroke-width="0.5" x1="2.333" y1="257.754" x2="242.333" y2="1.755"/>
	<line fill="none" stroke="#000000" stroke-width="0.5" x1="2.333" y1="249.755" x2="250.333" y2="1.755"/>
	<line fill="none" stroke="#000000" stroke-width="0.5" x1="2.333" y1="241.755" x2="258.333" y2="1.755"/>
	<line fill="none" stroke="#000000" stroke-width="0.5" x1="2.333" y1="233.755" x2="266.333" y2="1.755"/>
	<line fill="none" stroke="#000000" stroke-width="0.5" x1="2.333" y1="225.755" x2="274.333" y2="1.755"/>
	<line fill="none" stroke="#000000" stroke-width="0.5" x1="2.333" y1="217.755" x2="282.333" y2="1.755"/>
	<line fill="none" stroke="#000000" stroke-width="0.5" x1="2.333" y1="209.755" x2="290.333" y2="1.755"/>
	<line fill="none" stroke="#000000" stroke-width="0.5" x1="2.333" y1="201.755" x2="298.333" y2="1.755"/>
	<line fill="none" stroke="#000000" stroke-width="0.5" x1="2.333" y1="193.755" x2="306.333" y2="1.755"/>
	<line fill="none" stroke="#000000" stroke-width="0.5" x1="2.333" y1="185.755" x2="314.333" y2="1.755"/>
	<line fill="none" stroke="#000000" stroke-width="0.5" x1="2.333" y1="177.755" x2="322.333" y2="1.755"/>
	<line fill="none" stroke="#000000" stroke-width="0.5" x1="2.333" y1="169.755" x2="330.333" y2="1.755"/>
	<line fill="none" stroke="#000000" stroke-width="0.5" x1="2.333" y1="161.755" x2="338.333" y2="1.755"/>
	<line fill="none" stroke="#000000" stroke-width="0.5" x1="2.333" y1="153.755" x2="346.333" y2="1.755"/>
	<line fill="none" stroke="#000000" stroke-width="0.5" x1="2.333" y1="145.755" x2="354.333" y2="1.755"/>
	<line fill="none" stroke="#000000" stroke-width="0.5" x1="2.333" y1="137.755" x2="362.333" y2="1.755"/>
	<line fill="none" stroke="#000000" stroke-width="0.5" x1="2.333" y1="129.755" x2="370.333" y2="1.755"/>
	<line fill="none" stroke="#000000" stroke-width="0.5" x1="2.333" y1="121.755" x2="378.333" y2="1.755"/>
	<line fill="none" stroke="#000000" stroke-width="0.5" x1="2.333" y1="113.755" x2="386.333" y2="1.755"/>
	<line fill="none" stroke="#000000" stroke-width="0.5" x1="2.333" y1="105.755" x2="394.333" y2="1.755"/>
	<line fill="none" stroke="#000000" stroke-width="0.5" x1="2.333" y1="97.755" x2="402.333" y2="1.755"/>
	<line fill="none" stroke="#000000" stroke-width="0.5" x1="2.333" y1="89.755" x2="410.333" y2="1.755"/>
	<line fill="none" stroke="#000000" stroke-width="0.5" x1="2.333" y1="81.755" x2="418.333" y2="1.755"/>
	<line fill="none" stroke="#000000" stroke-width="0.5" x1="2.333" y1="73.755" x2="426.333" y2="1.755"/>
	<line fill="none" stroke="#000000" stroke-width="0.5" x1="2.333" y1="65.755" x2="434.333" y2="1.755"/>
	<line fill="none" stroke="#000000" stroke-width="0.5" x1="2.333" y1="57.755" x2="442.333" y2="1.755"/>
	<line fill="none" stroke="#000000" stroke-width="0.5" x1="2.333" y1="49.755" x2="450.333" y2="1.755"/>
	<line fill="none" stroke="#000000" stroke-width="0.5" x1="2.333" y1="41.755" x2="458.333" y2="1.755"/>
	<line fill="none" stroke="#000000" stroke-width="0.5" x1="2.333" y1="33.755" x2="466.333" y2="1.755"/>
	<line fill="none" stroke="#000000" stroke-width="0.5" x1="2.333" y1="25.755" x2="474.333" y2="1.755"/>
	<line fill="none" stroke="#000000" stroke-width="0.5" x1="2.333" y1="17.755" x2="482.333" y2="1.755"/>
	<line fill="none" stroke="#000000" stroke-width="0.5" x1="2.333" y1="9.755" x2="491" y2="2.088"/>
	<line fill="none" stroke="#000000" stroke-width="0.5" x1="2.333" y1="489.754" x2="2.5" y2="1.838"/>
	<line fill="none" stroke="#000000" stroke-width="0.5" x1="2.5" y1="1.838" x2="502.333" y2="1.755"/>
</g>
</svg>
