<?xml version="1.0" encoding="utf-8"?>
<!-- Generator: Adobe Illustrator 12.0.0, SVG Export Plug-In . SVG Version: 6.00 Build 51448)  -->
<!DOCTYPE svg PUBLIC "-//W3C//DTD SVG 1.1//EN" "http://www.w3.org/Graphics/SVG/1.1/DTD/svg11.dtd" [
	<!ENTITY ns_svg "http://www.w3.org/2000/svg">
	<!ENTITY ns_xlink "http://www.w3.org/1999/xlink">
]>
<svg  version="1.1" id="Calque_1" xmlns="&ns_svg;" xmlns:xlink="&ns_xlink;" width="2430.529" height="2442.537"
	 viewBox="0 0 2430.529 2442.537" overflow="visible" enable-background="new 0 0 2430.529 2442.537" xml:space="preserve">
<ellipse fill="#FFFFFF" stroke="#000000" stroke-width="80" cx="1215.265" cy="1221.269" rx="1175.265" ry="1181.269"/>
<g><!--C'est un conteneur comme un div-->
	<line fill="#FFFFFF" stroke="#000000" stroke-width="2" x1="2274.353" y1="1109.77" x2="2331.206" y2="1103.794"/>
	<line fill="#FFFFFF" stroke="#000000" stroke-width="2" x1="2256.919" y1="999.696" x2="2312.836" y2="987.811"/>
	<line fill="#FFFFFF" stroke="#000000" stroke-width="2" x1="2228.075" y1="892.048" x2="2282.442" y2="874.382"/>
	<line fill="#FFFFFF" stroke="#000000" stroke-width="2" x1="2188.137" y1="788.004" x2="2240.359" y2="764.753"/>
	<line fill="#FFFFFF" stroke="#000000" stroke-width="2" x1="2076.844" y1="595.239" x2="2123.092" y2="561.638"/>
	<line fill="#FFFFFF" stroke="#000000" stroke-width="2" x1="2006.71" y1="508.629" x2="2049.19" y2="470.378"/>
	<line fill="#FFFFFF" stroke="#000000" stroke-width="2" x1="1927.906" y1="429.825" x2="1966.156" y2="387.343"/>
	<line fill="#FFFFFF" stroke="#000000" stroke-width="2" x1="1841.297" y1="359.69" x2="1874.896" y2="313.442"/>
	<line fill="#FFFFFF" stroke="#000000" stroke-width="2" x1="1648.531" y1="248.396" x2="1671.781" y2="196.173"/>
	<line fill="#FFFFFF" stroke="#000000" stroke-width="2" x1="1544.488" y1="208.458" x2="1562.151" y2="154.09"/>
	<line fill="#FFFFFF" stroke="#000000" stroke-width="2" x1="1436.839" y1="179.613" x2="1448.724" y2="123.697"/>
	<line fill="#FFFFFF" stroke="#000000" stroke-width="2" x1="1326.766" y1="162.179" x2="1332.74" y2="105.327"/>
	<line fill="#FFFFFF" stroke="#000000" stroke-width="2" x1="1104.179" y1="162.179" x2="1098.202" y2="105.327"/>
	<line fill="#FFFFFF" stroke="#000000" stroke-width="2" x1="994.105" y1="179.613" x2="982.219" y2="123.696"/>
	<line fill="#FFFFFF" stroke="#000000" stroke-width="2" x1="886.457" y1="208.457" x2="868.79" y2="154.09"/>
	<line fill="#FFFFFF" stroke="#000000" stroke-width="2" x1="782.413" y1="248.395" x2="759.161" y2="196.173"/>
	<line fill="#FFFFFF" stroke="#000000" stroke-width="2" x1="589.647" y1="359.688" x2="556.046" y2="313.441"/>
	<line fill="#FFFFFF" stroke="#000000" stroke-width="2" x1="503.037" y1="429.823" x2="464.786" y2="387.342"/>
	<line fill="#FFFFFF" stroke="#000000" stroke-width="2" x1="424.233" y1="508.627" x2="381.75" y2="470.377"/>
	<line fill="#FFFFFF" stroke="#000000" stroke-width="2" x1="354.098" y1="595.237" x2="307.85" y2="561.637"/>
	<line fill="#FFFFFF" stroke="#000000" stroke-width="2" x1="242.805" y1="788.002" x2="190.581" y2="764.752"/>
	<line fill="#FFFFFF" stroke="#000000" stroke-width="2" x1="202.866" y1="892.046" x2="148.498" y2="874.382"/>
	<line fill="#FFFFFF" stroke="#000000" stroke-width="2" x1="174.021" y1="999.694" x2="118.105" y2="987.81"/>
	<line fill="#FFFFFF" stroke="#000000" stroke-width="2" x1="156.587" y1="1109.769" x2="99.734" y2="1103.794"/>
	<line fill="#FFFFFF" stroke="#000000" stroke-width="2" x1="156.587" y1="1332.355" x2="99.734" y2="1338.331"/>
	<line fill="#FFFFFF" stroke="#000000" stroke-width="2" x1="174.021" y1="1442.429" x2="118.104" y2="1454.314"/>
	<line fill="#FFFFFF" stroke="#000000" stroke-width="2" x1="202.865" y1="1550.078" x2="148.498" y2="1567.742"/>
	<line fill="#FFFFFF" stroke="#000000" stroke-width="2" x1="242.804" y1="1654.121" x2="190.581" y2="1677.373"/>
	<line fill="#FFFFFF" stroke="#000000" stroke-width="2" x1="354.097" y1="1846.887" x2="307.849" y2="1880.488"/>
	<line fill="#FFFFFF" stroke="#000000" stroke-width="2" x1="424.232" y1="1933.497" x2="381.75" y2="1971.748"/>
	<line fill="#FFFFFF" stroke="#000000" stroke-width="2" x1="503.036" y1="2012.301" x2="464.785" y2="2054.783"/>
	<line fill="#FFFFFF" stroke="#000000" stroke-width="2" x1="589.646" y1="2082.437" x2="556.045" y2="2128.685"/>
	<line fill="#FFFFFF" stroke="#000000" stroke-width="2" x1="782.411" y1="2193.729" x2="759.16" y2="2245.953"/>
	<line fill="#FFFFFF" stroke="#000000" stroke-width="2" x1="886.455" y1="2233.668" x2="868.79" y2="2288.036"/>
	<line fill="#FFFFFF" stroke="#000000" stroke-width="2" x1="994.104" y1="2262.512" x2="982.218" y2="2318.429"/>
	<line fill="#FFFFFF" stroke="#000000" stroke-width="2" x1="1104.178" y1="2279.946" x2="1098.202" y2="2336.799"/>
	<line fill="#FFFFFF" stroke="#000000" stroke-width="2" x1="1326.764" y1="2279.946" x2="1332.738" y2="2336.799"/>
	<line fill="#FFFFFF" stroke="#000000" stroke-width="2" x1="1436.838" y1="2262.512" x2="1448.723" y2="2318.429"/>
	<line fill="#FFFFFF" stroke="#000000" stroke-width="2" x1="1544.486" y1="2233.668" x2="1562.15" y2="2288.036"/>
	<line fill="#FFFFFF" stroke="#000000" stroke-width="2" x1="1648.53" y1="2193.729" x2="1671.78" y2="2245.953"/>
	<line fill="#FFFFFF" stroke="#000000" stroke-width="2" x1="1841.296" y1="2082.437" x2="1874.896" y2="2128.685"/>
	<line fill="#FFFFFF" stroke="#000000" stroke-width="2" x1="1927.906" y1="2012.301" x2="1966.156" y2="2054.783"/>
	<line fill="#FFFFFF" stroke="#000000" stroke-width="2" x1="2006.71" y1="1933.497" x2="2049.191" y2="1971.748"/>
	<line fill="#FFFFFF" stroke="#000000" stroke-width="2" x1="2076.846" y1="1846.888" x2="2123.092" y2="1880.488"/>
	<line fill="#FFFFFF" stroke="#000000" stroke-width="2" x1="2188.139" y1="1654.123" x2="2240.36" y2="1677.373"/>
	<line fill="#FFFFFF" stroke="#000000" stroke-width="2" x1="2228.077" y1="1550.079" x2="2282.443" y2="1567.742"/>
	<line fill="#FFFFFF" stroke="#000000" stroke-width="2" x1="2256.921" y1="1442.43" x2="2312.837" y2="1454.314"/>
	<line fill="#FFFFFF" stroke="#000000" stroke-width="2" x1="2274.355" y1="1332.355" x2="2331.207" y2="1338.331"/>
	<path fill="#FFFFFF" stroke="#000000" stroke-width="2" d="M1215.471,1221.063"/>
</g>
<g>
	<line fill="#FFFFFF" stroke="#000000" stroke-width="30" x1="2208.598" y1="1221.269" x2="2328.598" y2="1221.269"/>
	<line fill="#FFFFFF" stroke="#000000" stroke-width="30" x1="2075.517" y1="724.602" x2="2179.439" y2="664.602"/>
	<line fill="#FFFFFF" stroke="#000000" stroke-width="30" x1="1711.932" y1="361.017" x2="1771.932" y2="257.094"/>
	<line fill="#FFFFFF" stroke="#000000" stroke-width="30" x1="1215.266" y1="227.936" x2="1215.266" y2="107.936"/>
	<line fill="#FFFFFF" stroke="#000000" stroke-width="30" x1="718.599" y1="361.017" x2="658.599" y2="257.094"/>
	<line fill="#FFFFFF" stroke="#000000" stroke-width="30" x1="355.014" y1="724.602" x2="251.09" y2="664.603"/>
	<line fill="#FFFFFF" stroke="#000000" stroke-width="30" x1="221.932" y1="1221.269" x2="101.932" y2="1221.27"/>
	<line fill="#FFFFFF" stroke="#000000" stroke-width="30" x1="355.014" y1="1717.935" x2="251.091" y2="1777.936"/>
	<line fill="#FFFFFF" stroke="#000000" stroke-width="30" x1="718.598" y1="2081.52" x2="658.6" y2="2185.443"/>
	<line fill="#FFFFFF" stroke="#000000" stroke-width="30" x1="1215.264" y1="2214.602" x2="1215.266" y2="2334.602"/>
	<line fill="#FFFFFF" stroke="#000000" stroke-width="30" x1="1711.931" y1="2081.521" x2="1771.932" y2="2185.443"/>
	<line fill="#FFFFFF" stroke="#000000" stroke-width="30" x1="2075.516" y1="1717.936" x2="2179.439" y2="1777.936"/>
	<path fill="#FFFFFF" stroke="#000000" stroke-width="30" d="M1215.265,1221.269"/>
</g>
<g>
	<text transform="matrix(1 0 0 1 1131.4321 380.1338)" font-family="'ArialNarrow'" font-size="186.0042">12</text>
	<text transform="matrix(1 0 0 1 1614.5146 499.354)" font-family="'ArialNarrow'" font-size="186.0042">1</text>
	<text transform="matrix(1 0 0 1 1950.082 824.5024)" font-family="'ArialNarrow'" font-size="186.0042">2</text>
	<text transform="matrix(1 0 0 1 2070.2686 1273.042)" font-family="'ArialNarrow'" font-size="186.0042">3</text>
	<text transform="matrix(1 0 0 1 1949.0811 1721.5811)" font-family="'ArialNarrow'" font-size="186.0042">4</text>
	<text transform="matrix(1 0 0 1 1620.2236 2049.4395)" font-family="'ArialNarrow'" font-size="186.0042">5</text>
	<text transform="matrix(1 0 0 1 1171.436 2176.7881)" font-family="'ArialNarrow'" font-size="186.0042">6</text>
	<text transform="matrix(1 0 0 1 718.8975 2056.6025)" font-family="'ArialNarrow'" font-size="186.0042">7</text>
	<text transform="matrix(1 0 0 1 391.04 1723.3252)" font-family="'ArialNarrow'" font-size="186.0042">8</text>
	<text transform="matrix(1 0 0 1 278.4233 1276.7295)" font-family="'ArialNarrow'" font-size="186.0042">9</text>
	<text transform="matrix(1 0 0 1 388.3306 823.5386)" font-family="'ArialNarrow'" font-size="186.0042">10</text>
	<text transform="matrix(1 0 0 1 671.6792 522.1875)" font-family="'ArialNarrow'" font-size="186.0042">11</text>
</g>
<g>
	<polygon fill="#5E5E5E" stroke="#000000" points="1215.265,390.132 1142.906,1278.671 1215.265,1221.269 	"/>
	<polyline points="1142.906,1278.671 1215.265,1431.72 1215.265,1221.269 	"/>
	<polyline stroke="#000000" points="1287.622,1278.671 1215.265,1431.72 1215.265,1221.269 	"/>
	<polygon stroke="#000000" points="1215.265,390.132 1287.622,1278.671 1215.265,1221.269 	"/>
	<line fill="#FFFFFF" stroke="#000000" x1="1215.265" y1="1431.72" x2="1215.265" y2="1221.269"/>
</g>
<g>
	<polygon fill="#5E5E5E" stroke="#000000" points="1215.265,124.211 1142.906,1278.671 1215.265,1221.269 	"/>
	<polyline points="1142.906,1278.671 1215.265,1431.72 1215.265,1221.269 	"/>
	<polyline stroke="#000000" points="1287.622,1278.671 1215.265,1431.72 1215.265,1221.269 	"/>
	<polygon stroke="#000000" points="1215.265,124.211 1287.622,1278.671 1215.265,1221.269 	"/>
	<line fill="#FFFFFF" stroke="#000000" x1="1215.265" y1="1431.72" x2="1215.265" y2="1221.269"/>
</g>
<g>
	<g>
		<rect x="1199.706" y="1251.563" stroke="#000000" width="31.14" height="236.915"/>
	</g>
	<line fill="none" stroke="#000000" stroke-width="10" x1="1215.098" y1="1250.873" x2="1215.098" y2="103.102"/>
</g>
<circle fill="#7F7F7F" stroke="#000000" cx="1215.265" cy="1221.269" r="29.25"/>
</svg>
